<svg xmlns="http://www.w3.org/2000/svg" width="24" height="25" viewBox="0 0 24 25" fill="none">
  <path d="M16.017 2.10938H7.947C6.37015 2.11123 4.85844 2.73852 3.74353 3.85361C2.62862 4.9687 2.00159 6.48053 2 8.05737L2 16.1274C2.00185 17.7042 2.62914 19.2159 3.74424 20.3308C4.85933 21.4458 6.37115 22.0728 7.948 22.0744H16.018C17.5948 22.0725 19.1066 21.4452 20.2215 20.3301C21.3364 19.215 21.9634 17.7032 21.965 16.1264V8.05638C21.9631 6.47953 21.3359 4.96781 20.2208 3.8529C19.1057 2.738 17.5938 2.11096 16.017 2.10938V2.10938ZM19.957 16.1264C19.957 16.6438 19.8551 17.1561 19.6571 17.6341C19.4591 18.1122 19.1689 18.5465 18.803 18.9124C18.4371 19.2782 18.0028 19.5685 17.5248 19.7665C17.0468 19.9645 16.5344 20.0664 16.017 20.0664H7.947C6.90222 20.0661 5.90032 19.6509 5.16165 18.912C4.42297 18.1732 4.008 17.1712 4.008 16.1264V8.05638C4.00827 7.0116 4.42349 6.0097 5.16235 5.27102C5.90122 4.53234 6.90322 4.11737 7.948 4.11737H16.018C17.0628 4.11764 18.0647 4.53286 18.8034 5.27173C19.542 6.01059 19.957 7.0126 19.957 8.05737V16.1274V16.1264Z" fill="white"/>
  <path d="M11.982 6.92822C10.6134 6.93034 9.30154 7.47501 8.33391 8.44283C7.36627 9.41065 6.82186 10.7227 6.82001 12.0912C6.82159 13.4601 7.36603 14.7726 8.33391 15.7406C9.30179 16.7087 10.6141 17.2534 11.983 17.2552C13.3521 17.2536 14.6647 16.7091 15.6328 15.741C16.6008 14.7729 17.1454 13.4603 17.147 12.0912C17.1449 10.7223 16.5999 9.41011 15.6317 8.44242C14.6634 7.47473 13.3509 6.93055 11.982 6.92922V6.92822ZM11.982 15.2472C11.1452 15.2472 10.3428 14.9148 9.75109 14.3231C9.15941 13.7315 8.82701 12.929 8.82701 12.0922C8.82701 11.2555 9.15941 10.453 9.75109 9.8613C10.3428 9.26962 11.1452 8.93722 11.982 8.93722C12.8188 8.93722 13.6213 9.26962 14.2129 9.8613C14.8046 10.453 15.137 11.2555 15.137 12.0922C15.137 12.929 14.8046 13.7315 14.2129 14.3231C13.6213 14.9148 12.8188 15.2472 11.982 15.2472Z" fill="white"/>
  <path d="M17.156 8.20447C17.8392 8.20447 18.393 7.65064 18.393 6.96747C18.393 6.28429 17.8392 5.73047 17.156 5.73047C16.4728 5.73047 15.919 6.28429 15.919 6.96747C15.919 7.65064 16.4728 8.20447 17.156 8.20447Z" fill="white"/>
</svg>