<svg xmlns="http://www.w3.org/2000/svg" width="24" height="25" viewBox="0 0 24 25" fill="none">
  <path d="M21.959 13.8283V21.2073H17.681V14.3223C17.681 12.5923 17.062 11.4123 15.514 11.4123C14.332 11.4123 13.628 12.2083 13.319 12.9773C13.206 13.2523 13.177 13.6353 13.177 14.0203V21.2073H8.897C8.897 21.2073 8.955 9.54725 8.897 8.33825H13.177V10.1623L13.149 10.2043H13.177V10.1623C13.745 9.28725 14.76 8.03625 17.033 8.03625C19.848 8.03625 21.959 9.87625 21.959 13.8283ZM4.421 2.13525C2.958 2.13525 2 3.09525 2 4.35825C2 5.59325 2.93 6.58225 4.365 6.58225H4.393C5.886 6.58225 6.813 5.59325 6.813 4.35825C6.787 3.09525 5.887 2.13525 4.422 2.13525H4.421ZM2.254 21.2073H6.532V8.33825H2.254V21.2073Z" fill="white"/>
</svg>