<svg xmlns="http://www.w3.org/2000/svg" width="30" height="30" viewBox="0 0 30 30" fill="none">
  <path fill-rule="evenodd" clip-rule="evenodd" d="M15.2842 0.859558C7.27696 0.859558 0.784241 7.35221 0.784241 15.3596C0.784241 23.3669 7.27696 29.8596 15.2842 29.8596C23.2921 29.8596 29.7842 23.3668 29.7842 15.3596C29.7842 7.35235 23.2921 0.859558 15.2842 0.859558ZM28.5757 15.3596C28.5757 15.3629 28.5756 15.3663 28.5756 15.3697C27.02 15.2497 25.509 14.8836 24.0708 14.2753C22.8238 13.7478 21.6691 13.055 20.6216 12.2094C22.0639 10.1529 23.3014 7.94225 24.304 5.6067C26.9292 8.03636 28.5757 11.5091 28.5757 15.3596ZM23.413 4.85131C23.3935 4.89844 23.3747 4.9457 23.3548 4.99269C22.3853 7.28501 21.1894 9.45116 19.7796 11.475C19.6724 11.3739 19.5661 11.2718 19.4615 11.1673C18.1295 9.83534 17.0838 8.28446 16.3535 6.55799C15.7473 5.12451 15.3823 3.61874 15.2611 2.0685C15.2688 2.0685 15.2765 2.06822 15.2842 2.06822C18.3435 2.06815 21.1642 3.10769 23.413 4.85131ZM14.1462 2.11743C14.4551 6.16949 16.3103 9.78856 19.123 12.3868C18.4611 13.2755 17.756 14.1349 17.0094 14.9637C13.6943 11.4759 9.70258 8.63762 5.24438 6.65879C7.44978 4.11739 10.6019 2.41935 14.1462 2.11743ZM17.0052 16.6032C19.5308 19.4384 21.5699 22.6289 23.083 26.1156C21.3123 27.4029 19.2133 28.2647 16.9371 28.5484C16.7787 25.215 15.5763 22.1553 13.6482 19.69C14.8299 18.7306 15.9512 17.6996 17.0052 16.6032ZM15.7052 16.3382C14.8196 17.2238 13.8943 18.0575 12.9322 18.8388C10.2318 15.8492 6.39114 13.9098 2.09558 13.7056C2.37931 11.4298 3.24108 9.33118 4.52824 7.56079C8.65481 9.35154 12.367 11.8792 15.5658 15.078C15.7975 15.3096 16.0252 15.5443 16.2498 15.7813C16.0704 15.9686 15.8891 16.1543 15.7052 16.3382ZM2.00475 14.8179C3.76413 14.8977 5.45101 15.2917 6.98564 15.9409C8.71219 16.6712 10.263 17.7169 11.595 19.0488C11.7521 19.206 11.9048 19.3664 12.0539 19.5295C9.86403 21.1966 7.49293 22.6002 4.96373 23.7249C3.10717 21.4388 1.99276 18.527 1.99276 15.3596C1.99276 15.178 1.9975 14.9977 2.00475 14.8179ZM5.73843 24.5981C8.24721 23.4525 10.605 22.0337 12.7733 20.3791C13.5575 21.381 14.2039 22.4785 14.7029 23.6582C15.3731 25.2426 15.7495 26.9154 15.8262 28.639C15.6464 28.6463 15.4658 28.651 15.2842 28.651C11.5419 28.651 8.15631 27.0957 5.73843 24.5981ZM23.9849 25.3995C22.4172 21.8671 20.3097 18.6277 17.7673 15.7856C18.5412 14.9303 19.2754 14.0386 19.9671 13.1132C22.3492 15.0192 25.3015 16.2422 28.5278 16.4846C28.2287 20.0343 26.5295 23.1914 23.9849 25.3995Z" fill="black" fill-opacity="0.38"/>
</svg>