<svg xmlns="http://www.w3.org/2000/svg" width="24" height="25" viewBox="0 0 24 25" fill="none">
  <path d="M9.59828 5.16219C9.92044 4.29157 11.1518 4.29157 11.474 5.16219L13.0775 9.49554C13.1788 9.76926 13.3946 9.98507 13.6683 10.0864L18.0016 11.6898C18.8722 12.012 18.8722 13.2434 18.0016 13.5655L13.6683 15.169C13.3946 15.2703 13.1788 15.4861 13.0775 15.7598L11.474 20.0932C11.1518 20.9638 9.92044 20.9638 9.59828 20.0932L7.9948 15.7598C7.89351 15.4861 7.6777 15.2703 7.40398 15.169L3.07064 13.5655C2.20002 13.2434 2.20002 12.012 3.07064 11.6898L7.40398 10.0864C7.6777 9.98507 7.89351 9.76926 7.9948 9.49554L9.59828 5.16219Z" fill="#FCD70D"/>
  <path d="M16.0014 2.71649C16.1713 2.3033 16.7565 2.3033 16.9263 2.71649L17.2585 3.52457C17.3093 3.64807 17.4073 3.74614 17.5309 3.79691L18.3389 4.1291C18.7521 4.29896 18.7521 4.88414 18.3389 5.054L17.5309 5.3862C17.4073 5.43697 17.3093 5.53503 17.2585 5.65854L16.9263 6.46662C16.7565 6.87981 16.1713 6.87981 16.0014 6.46662L15.6692 5.65854C15.6185 5.53503 15.5204 5.43697 15.3969 5.3862L14.5888 5.054C14.1756 4.88414 14.1756 4.29896 14.5888 4.1291L15.3969 3.79691C15.5204 3.74614 15.6185 3.64807 15.6692 3.52457L16.0014 2.71649Z" fill="#FCD70D"/>
  <path d="M21.1851 7.47914C21.2853 7.22679 21.6425 7.22679 21.7427 7.47914L21.9846 8.08828C22.0151 8.16506 22.0759 8.22587 22.1527 8.25636L22.7618 8.49828C23.0142 8.59851 23.0142 8.95569 22.7618 9.05592L22.1527 9.29783C22.0759 9.32833 22.0151 9.38914 21.9846 9.46592L21.7427 10.0751C21.6425 10.3274 21.2853 10.3274 21.1851 10.0751L20.9431 9.46592C20.9126 9.38914 20.8518 9.32833 20.775 9.29783L20.1659 9.05592C19.9136 8.95569 19.9136 8.59851 20.1659 8.49828L20.775 8.25636C20.8518 8.22587 20.9126 8.16506 20.9431 8.08828L21.1851 7.47914Z" fill="#FCD70D"/>
</svg>