<svg width="63" height="50" viewBox="0 0 63 50" fill="none" xmlns="http://www.w3.org/2000/svg">
<path id="Vector" d="M26.5706 50C25.8058 50 25.0556 49.7017 24.4934 49.1388L5.0763 29.6978C1.80269 26.4219 0 22.0511 0 17.3893C0 12.7274 1.80269 8.35807 5.0763 5.08069C8.34845 1.80477 12.7142 0 17.3692 0C22.0242 0 26.3915 1.80477 29.6636 5.08216L31.2461 6.66647L32.8272 5.08216C36.1008 1.80477 40.4666 0 45.1216 0C49.7765 0 54.1438 1.80477 57.416 5.08216C64.1951 11.8691 64.1951 22.9123 57.416 29.6978L38.0121 49.1241C37.1724 49.9647 35.9099 50.216 34.8119 49.7619C33.7153 49.3063 32.9989 48.2349 32.9989 47.0459V22.2216C32.9989 20.5976 34.3128 19.2822 35.9349 19.2822C37.557 19.2822 38.8709 20.5976 38.8709 22.2216V39.9503L53.2615 25.5416C57.7507 21.0473 57.7507 13.7327 53.2615 9.23841C51.0977 7.0721 48.2058 5.87872 45.1186 5.87872C42.0314 5.87872 39.141 7.0721 36.9772 9.23841L33.3204 12.9009C32.7699 13.452 32.0227 13.7621 31.2447 13.7621C30.4666 13.7621 29.7194 13.452 29.1689 12.9009L25.5107 9.23841C23.3469 7.0721 20.4549 5.87872 17.3678 5.87872C14.2806 5.87872 11.3901 7.0721 9.22631 9.23841C7.06249 11.4047 5.87048 14.3 5.87048 17.3893C5.87048 20.4785 7.06249 23.3738 9.22631 25.5401L23.6331 39.9636V21.1061H19.1602C17.5381 21.1061 16.2242 19.7907 16.2242 18.1667C16.2242 16.5427 17.5381 15.2274 19.1602 15.2274H26.5691C28.1912 15.2274 29.5051 16.5427 29.5051 18.1667V47.0606C29.5051 48.2496 28.7902 49.321 27.6921 49.7766C27.3295 49.9265 26.9479 50 26.5691 50H26.5706Z" fill="#FCD70D"/>
</svg>
