<svg width="115" height="98" viewBox="0 0 115 98" fill="none" xmlns="http://www.w3.org/2000/svg">
<g id="Logo / AE">
<rect x="23.4216" width="68" height="68" rx="10" fill="#13012D"/>
<rect id="Rectangle 1" x="25.9216" y="2.5" width="63" height="63" rx="7.5" stroke="#D8A1FF" stroke-width="5"/>
<g id="Rectangle 2">
<rect x="23.4216" width="68" height="68" rx="10" fill="url(#paint0_radial_34_6063)"/>
<rect x="23.4216" width="68" height="68" rx="10" fill="url(#paint1_radial_34_6063)"/>
<rect x="23.4216" width="68" height="68" rx="10" fill="url(#paint2_radial_34_6063)"/>
<rect x="23.4216" width="68" height="68" rx="10" fill="url(#paint3_radial_34_6063)"/>
</g>
<g id="Vector">
<path fill-rule="evenodd" clip-rule="evenodd" d="M72.5846 32.8336C72.452 32.8866 71.9748 32.8866 70.623 32.8866H65.2947C65.5598 30.5272 66.6465 28.3006 69.1915 28.3006C71.9483 28.3006 72.6376 30.9514 72.6376 32.3829C72.6376 32.4436 72.6265 32.5043 72.6144 32.5702C72.6001 32.648 72.5846 32.7331 72.5846 32.8336ZM65.2417 36.5715C65.3108 40.1209 67.0113 42.5093 71.0207 42.5093C72.5847 42.5093 73.9366 42.2974 75.3417 41.6876C75.5272 41.6081 75.6598 41.6346 75.6598 41.8732V45.1868C75.6598 45.4518 75.5803 45.5845 75.3948 45.717C73.9898 46.4061 72.2401 46.7243 70.0665 46.7243C63.0682 46.7243 60.4438 41.5551 60.4438 35.8027C60.4438 29.5466 63.6779 24.4305 69.3773 24.4305C75.1562 24.4305 77.171 29.2816 77.171 33.2314C77.171 34.5039 77.0914 35.5377 76.9589 36.0414C76.9059 36.2534 76.8264 36.333 76.6142 36.3861C76.084 36.4656 74.52 36.5715 72.1872 36.5715H65.2417ZM49.9894 29.8554C50.4025 31.3998 50.7796 32.8096 51.0331 33.8144H44.6709C44.8547 33.1195 45.0491 32.392 45.248 31.6478C46.2251 27.9915 47.3099 23.9322 47.7724 21.3552H47.8254C48.2618 23.3976 49.1926 26.877 49.9894 29.8554ZM41.4898 46.035L43.5839 38.1089L52.0932 38.109L54.267 46.0617C54.32 46.2471 54.4526 46.3266 54.6646 46.3266H59.0386C59.2506 46.3266 59.3036 46.194 59.2506 45.982L50.8208 17.432C50.7677 17.22 50.6882 17.167 50.5027 17.167H44.9358C44.8033 17.167 44.7238 17.2465 44.7238 17.432C44.6708 18.7574 44.5912 19.1286 44.4587 19.6057L36.9302 45.929C36.8771 46.2471 36.9302 46.3266 37.1953 46.3266H41.0921C41.3573 46.3266 41.4368 46.247 41.4898 46.035Z" fill="#D8A1FF"/>
<path fill-rule="evenodd" clip-rule="evenodd" d="M72.5846 32.8336C72.452 32.8866 71.9748 32.8866 70.623 32.8866H65.2947C65.5598 30.5272 66.6465 28.3006 69.1915 28.3006C71.9483 28.3006 72.6376 30.9514 72.6376 32.3829C72.6376 32.4436 72.6265 32.5043 72.6144 32.5702C72.6001 32.648 72.5846 32.7331 72.5846 32.8336ZM65.2417 36.5715C65.3108 40.1209 67.0113 42.5093 71.0207 42.5093C72.5847 42.5093 73.9366 42.2974 75.3417 41.6876C75.5272 41.6081 75.6598 41.6346 75.6598 41.8732V45.1868C75.6598 45.4518 75.5803 45.5845 75.3948 45.717C73.9898 46.4061 72.2401 46.7243 70.0665 46.7243C63.0682 46.7243 60.4438 41.5551 60.4438 35.8027C60.4438 29.5466 63.6779 24.4305 69.3773 24.4305C75.1562 24.4305 77.171 29.2816 77.171 33.2314C77.171 34.5039 77.0914 35.5377 76.9589 36.0414C76.9059 36.2534 76.8264 36.333 76.6142 36.3861C76.084 36.4656 74.52 36.5715 72.1872 36.5715H65.2417ZM49.9894 29.8554C50.4025 31.3998 50.7796 32.8096 51.0331 33.8144H44.6709C44.8547 33.1195 45.0491 32.392 45.248 31.6478C46.2251 27.9915 47.3099 23.9322 47.7724 21.3552H47.8254C48.2618 23.3976 49.1926 26.877 49.9894 29.8554ZM41.4898 46.035L43.5839 38.1089L52.0932 38.109L54.267 46.0617C54.32 46.2471 54.4526 46.3266 54.6646 46.3266H59.0386C59.2506 46.3266 59.3036 46.194 59.2506 45.982L50.8208 17.432C50.7677 17.22 50.6882 17.167 50.5027 17.167H44.9358C44.8033 17.167 44.7238 17.2465 44.7238 17.432C44.6708 18.7574 44.5912 19.1286 44.4587 19.6057L36.9302 45.929C36.8771 46.2471 36.9302 46.3266 37.1953 46.3266H41.0921C41.3573 46.3266 41.4368 46.247 41.4898 46.035Z" fill="url(#paint4_radial_34_6063)" fill-opacity="0.5"/>
<path fill-rule="evenodd" clip-rule="evenodd" d="M72.5846 32.8336C72.452 32.8866 71.9748 32.8866 70.623 32.8866H65.2947C65.5598 30.5272 66.6465 28.3006 69.1915 28.3006C71.9483 28.3006 72.6376 30.9514 72.6376 32.3829C72.6376 32.4436 72.6265 32.5043 72.6144 32.5702C72.6001 32.648 72.5846 32.7331 72.5846 32.8336ZM65.2417 36.5715C65.3108 40.1209 67.0113 42.5093 71.0207 42.5093C72.5847 42.5093 73.9366 42.2974 75.3417 41.6876C75.5272 41.6081 75.6598 41.6346 75.6598 41.8732V45.1868C75.6598 45.4518 75.5803 45.5845 75.3948 45.717C73.9898 46.4061 72.2401 46.7243 70.0665 46.7243C63.0682 46.7243 60.4438 41.5551 60.4438 35.8027C60.4438 29.5466 63.6779 24.4305 69.3773 24.4305C75.1562 24.4305 77.171 29.2816 77.171 33.2314C77.171 34.5039 77.0914 35.5377 76.9589 36.0414C76.9059 36.2534 76.8264 36.333 76.6142 36.3861C76.084 36.4656 74.52 36.5715 72.1872 36.5715H65.2417ZM49.9894 29.8554C50.4025 31.3998 50.7796 32.8096 51.0331 33.8144H44.6709C44.8547 33.1195 45.0491 32.392 45.248 31.6478C46.2251 27.9915 47.3099 23.9322 47.7724 21.3552H47.8254C48.2618 23.3976 49.1926 26.877 49.9894 29.8554ZM41.4898 46.035L43.5839 38.1089L52.0932 38.109L54.267 46.0617C54.32 46.2471 54.4526 46.3266 54.6646 46.3266H59.0386C59.2506 46.3266 59.3036 46.194 59.2506 45.982L50.8208 17.432C50.7677 17.22 50.6882 17.167 50.5027 17.167H44.9358C44.8033 17.167 44.7238 17.2465 44.7238 17.432C44.6708 18.7574 44.5912 19.1286 44.4587 19.6057L36.9302 45.929C36.8771 46.2471 36.9302 46.3266 37.1953 46.3266H41.0921C41.3573 46.3266 41.4368 46.247 41.4898 46.035Z" fill="url(#paint5_radial_34_6063)" fill-opacity="0.5"/>
</g>
<g id="Shadow" filter="url(#filter0_f_34_6063)">
<ellipse cx="57.4221" cy="82.0872" rx="45.0454" ry="3.70093" fill="url(#paint6_radial_34_6063)"/>
</g>
</g>
<defs>
<filter id="filter0_f_34_6063" x="0.376709" y="66.3862" width="114.091" height="31.4019" filterUnits="userSpaceOnUse" color-interpolation-filters="sRGB">
<feFlood flood-opacity="0" result="BackgroundImageFix"/>
<feBlend mode="normal" in="SourceGraphic" in2="BackgroundImageFix" result="shape"/>
<feGaussianBlur stdDeviation="6" result="effect1_foregroundBlur_34_6063"/>
</filter>
<radialGradient id="paint0_radial_34_6063" cx="0" cy="0" r="1" gradientUnits="userSpaceOnUse" gradientTransform="translate(23.4216 30.9974) rotate(1.10882) scale(14.0112 42.0512)">
<stop stop-color="white" stop-opacity="0.5"/>
<stop offset="1" stop-color="white" stop-opacity="0"/>
</radialGradient>
<radialGradient id="paint1_radial_34_6063" cx="0" cy="0" r="1" gradientUnits="userSpaceOnUse" gradientTransform="translate(91.4216 34) rotate(-180) scale(14.1347 35.8098)">
<stop stop-color="white" stop-opacity="0.5"/>
<stop offset="1" stop-color="white" stop-opacity="0"/>
</radialGradient>
<radialGradient id="paint2_radial_34_6063" cx="0" cy="0" r="1" gradientUnits="userSpaceOnUse" gradientTransform="translate(57.4216) rotate(90) scale(10.1201 52.5275)">
<stop stop-color="white" stop-opacity="0.6"/>
<stop offset="1" stop-color="white" stop-opacity="0"/>
</radialGradient>
<radialGradient id="paint3_radial_34_6063" cx="0" cy="0" r="1" gradientUnits="userSpaceOnUse" gradientTransform="translate(58.214 68) rotate(-90) scale(3.48695 33.2076)">
<stop stop-opacity="0.5"/>
<stop offset="1" stop-opacity="0"/>
</radialGradient>
<radialGradient id="paint4_radial_34_6063" cx="0" cy="0" r="1" gradientUnits="userSpaceOnUse" gradientTransform="translate(40.9877 32.0615) rotate(13.3925) scale(3.8304 17.2532)">
<stop stop-color="white"/>
<stop offset="1" stop-color="white" stop-opacity="0"/>
</radialGradient>
<radialGradient id="paint5_radial_34_6063" cx="0" cy="0" r="1" gradientUnits="userSpaceOnUse" gradientTransform="translate(76.4478 34) rotate(180) scale(5.63268 16.5371)">
<stop stop-color="white"/>
<stop offset="1" stop-color="white" stop-opacity="0"/>
</radialGradient>
<radialGradient id="paint6_radial_34_6063" cx="0" cy="0" r="1" gradientUnits="userSpaceOnUse" gradientTransform="translate(57.4221 82.0872) rotate(90) scale(3.70093 45.0454)">
<stop stop-color="#60563E"/>
<stop offset="1" stop-color="#60563E" stop-opacity="0"/>
</radialGradient>
</defs>
</svg>
