<svg width="115" height="98" viewBox="0 0 115 98" fill="none" xmlns="http://www.w3.org/2000/svg">
<g id="Logo / AI">
<rect x="23.4216" width="68" height="68" rx="10" fill="#170B01"/>
<rect id="Rectangle 1" x="25.9216" y="2.5" width="63" height="63" rx="7.5" stroke="#FFAD33" stroke-width="5"/>
<g id="Rectangle 2">
<rect x="23.4216" width="68" height="68" rx="10" fill="url(#paint0_radial_34_6062)"/>
<rect x="23.4216" width="68" height="68" rx="10" fill="url(#paint1_radial_34_6062)"/>
<rect x="23.4216" width="68" height="68" rx="10" fill="url(#paint2_radial_34_6062)"/>
<rect x="23.4216" width="68" height="68" rx="10" fill="url(#paint3_radial_34_6062)"/>
</g>
<g id="Vector">
<path fill-rule="evenodd" clip-rule="evenodd" d="M57.5204 47.3881L55.3053 39.801H47.1098L44.8947 47.3881H39.2834L47.1836 20.5639V17.627H54.7147L63.7224 47.3881H57.5204ZM54.1978 34.5878H48.1436L51.1708 22.9133L54.1978 34.5878Z" fill="#FFB447"/>
<path fill-rule="evenodd" clip-rule="evenodd" d="M57.5204 47.3881L55.3053 39.801H47.1098L44.8947 47.3881H39.2834L47.1836 20.5639V17.627H54.7147L63.7224 47.3881H57.5204ZM54.1978 34.5878H48.1436L51.1708 22.9133L54.1978 34.5878Z" fill="url(#paint4_radial_34_6062)" fill-opacity="0.5"/>
<path fill-rule="evenodd" clip-rule="evenodd" d="M57.5204 47.3881L55.3053 39.801H47.1098L44.8947 47.3881H39.2834L47.1836 20.5639V17.627H54.7147L63.7224 47.3881H57.5204ZM54.1978 34.5878H48.1436L51.1708 22.9133L54.1978 34.5878Z" fill="url(#paint5_radial_34_6062)" fill-opacity="0.5"/>
<path d="M72.4351 47.3881H66.3808V24.7492H72.4351V47.3881Z" fill="#FFB447"/>
<path d="M72.4351 47.3881H66.3808V24.7492H72.4351V47.3881Z" fill="url(#paint6_radial_34_6062)" fill-opacity="0.5"/>
<path d="M72.4351 47.3881H66.3808V24.7492H72.4351V47.3881Z" fill="url(#paint7_radial_34_6062)" fill-opacity="0.5"/>
<path d="M69.4446 22.0325C67.7115 22.0325 66.3064 20.6518 66.3064 18.9487C66.3064 17.2456 67.7112 15.8649 69.4446 15.8649C71.1779 15.8649 72.5826 17.2456 72.5826 18.9487C72.5826 20.6518 71.1778 22.0325 69.4446 22.0325Z" fill="#FFB447"/>
<path d="M69.4446 22.0325C67.7115 22.0325 66.3064 20.6518 66.3064 18.9487C66.3064 17.2456 67.7112 15.8649 69.4446 15.8649C71.1779 15.8649 72.5826 17.2456 72.5826 18.9487C72.5826 20.6518 71.1778 22.0325 69.4446 22.0325Z" fill="url(#paint8_radial_34_6062)" fill-opacity="0.5"/>
<path d="M69.4446 22.0325C67.7115 22.0325 66.3064 20.6518 66.3064 18.9487C66.3064 17.2456 67.7112 15.8649 69.4446 15.8649C71.1779 15.8649 72.5826 17.2456 72.5826 18.9487C72.5826 20.6518 71.1778 22.0325 69.4446 22.0325Z" fill="url(#paint9_radial_34_6062)" fill-opacity="0.5"/>
</g>
<g id="Shadow" filter="url(#filter0_f_34_6062)">
<ellipse cx="57.4221" cy="82.0872" rx="45.0454" ry="3.70093" fill="url(#paint10_radial_34_6062)"/>
</g>
</g>
<defs>
<filter id="filter0_f_34_6062" x="0.376709" y="66.3862" width="114.091" height="31.4019" filterUnits="userSpaceOnUse" color-interpolation-filters="sRGB">
<feFlood flood-opacity="0" result="BackgroundImageFix"/>
<feBlend mode="normal" in="SourceGraphic" in2="BackgroundImageFix" result="shape"/>
<feGaussianBlur stdDeviation="6" result="effect1_foregroundBlur_34_6062"/>
</filter>
<radialGradient id="paint0_radial_34_6062" cx="0" cy="0" r="1" gradientUnits="userSpaceOnUse" gradientTransform="translate(23.4216 30.9974) rotate(1.10882) scale(14.0112 42.0512)">
<stop stop-color="white" stop-opacity="0.5"/>
<stop offset="1" stop-color="white" stop-opacity="0"/>
</radialGradient>
<radialGradient id="paint1_radial_34_6062" cx="0" cy="0" r="1" gradientUnits="userSpaceOnUse" gradientTransform="translate(91.4216 34) rotate(-180) scale(14.1347 35.8098)">
<stop stop-color="white" stop-opacity="0.5"/>
<stop offset="1" stop-color="white" stop-opacity="0"/>
</radialGradient>
<radialGradient id="paint2_radial_34_6062" cx="0" cy="0" r="1" gradientUnits="userSpaceOnUse" gradientTransform="translate(57.4216) rotate(90) scale(10.1201 52.5275)">
<stop stop-color="white" stop-opacity="0.6"/>
<stop offset="1" stop-color="white" stop-opacity="0"/>
</radialGradient>
<radialGradient id="paint3_radial_34_6062" cx="0" cy="0" r="1" gradientUnits="userSpaceOnUse" gradientTransform="translate(58.214 68) rotate(-90) scale(3.48695 33.2076)">
<stop stop-opacity="0.5"/>
<stop offset="1" stop-opacity="0"/>
</radialGradient>
<radialGradient id="paint4_radial_34_6062" cx="0" cy="0" r="1" gradientUnits="userSpaceOnUse" gradientTransform="translate(43.2506 31.5532) rotate(12.9946) scale(5.76356 15.5442)">
<stop stop-color="white"/>
<stop offset="1" stop-color="white" stop-opacity="0"/>
</radialGradient>
<radialGradient id="paint5_radial_34_6062" cx="0" cy="0" r="1" gradientUnits="userSpaceOnUse" gradientTransform="translate(72.8424 34) rotate(180) scale(6.47996 23.1828)">
<stop stop-color="white"/>
<stop offset="1" stop-color="white" stop-opacity="0"/>
</radialGradient>
<radialGradient id="paint6_radial_34_6062" cx="0" cy="0" r="1" gradientUnits="userSpaceOnUse" gradientTransform="translate(43.2506 31.5532) rotate(12.9946) scale(5.76356 15.5442)">
<stop stop-color="white"/>
<stop offset="1" stop-color="white" stop-opacity="0"/>
</radialGradient>
<radialGradient id="paint7_radial_34_6062" cx="0" cy="0" r="1" gradientUnits="userSpaceOnUse" gradientTransform="translate(72.8424 34) rotate(180) scale(6.47996 23.1828)">
<stop stop-color="white"/>
<stop offset="1" stop-color="white" stop-opacity="0"/>
</radialGradient>
<radialGradient id="paint8_radial_34_6062" cx="0" cy="0" r="1" gradientUnits="userSpaceOnUse" gradientTransform="translate(43.2506 31.5532) rotate(12.9946) scale(5.76356 15.5442)">
<stop stop-color="white"/>
<stop offset="1" stop-color="white" stop-opacity="0"/>
</radialGradient>
<radialGradient id="paint9_radial_34_6062" cx="0" cy="0" r="1" gradientUnits="userSpaceOnUse" gradientTransform="translate(72.8424 34) rotate(180) scale(6.47996 23.1828)">
<stop stop-color="white"/>
<stop offset="1" stop-color="white" stop-opacity="0"/>
</radialGradient>
<radialGradient id="paint10_radial_34_6062" cx="0" cy="0" r="1" gradientUnits="userSpaceOnUse" gradientTransform="translate(57.4221 82.0872) rotate(90) scale(3.70093 45.0454)">
<stop stop-color="#60563E"/>
<stop offset="1" stop-color="#60563E" stop-opacity="0"/>
</radialGradient>
</defs>
</svg>
