<svg width="115" height="98" viewBox="0 0 115 98" fill="none" xmlns="http://www.w3.org/2000/svg">
<rect x="23.4216" width="68" height="68" rx="10" fill="#080143"/>
<rect x="25.9216" y="2.5" width="63" height="63" rx="7.5" stroke="#92C4FD" stroke-width="5"/>
<rect x="23.4216" width="68" height="68" rx="10" fill="url(#paint0_radial_34_6064)"/>
<rect x="23.4216" width="68" height="68" rx="10" fill="url(#paint1_radial_34_6064)"/>
<rect x="23.4216" width="68" height="68" rx="10" fill="url(#paint2_radial_34_6064)"/>
<rect x="23.4216" width="68" height="68" rx="10" fill="url(#paint3_radial_34_6064)"/>
<path d="M38.6984 19.4609C38.6984 19.4609 43.2809 19.3411 47.053 19.3411C50.8648 19.3411 53.5827 20.2329 55.4074 21.8C57.1514 23.2809 58.3275 25.8054 58.3275 28.6792C58.3275 31.553 57.4351 33.9046 55.8126 35.5579C53.7037 37.6916 51.2463 38.9546 47.053 39.1292C45.8946 39.1775 44.8224 39.189 44.8224 39.189V48.5308H38.6982L38.6984 19.4609ZM44.8222 34.0134C45.4875 34.0778 45.9045 34.0468 46.8907 34.035C50.1758 33.9959 52.203 32.0093 52.203 29.005C52.203 26.3061 50.5314 24.09 47.3777 23.9752C46.1207 23.9295 44.8222 23.9752 44.8222 23.9752V34.0134Z" fill="url(#paint4_linear_34_6064)"/>
<path d="M38.6984 19.4609C38.6984 19.4609 43.2809 19.3411 47.053 19.3411C50.8648 19.3411 53.5827 20.2329 55.4074 21.8C57.1514 23.2809 58.3275 25.8054 58.3275 28.6792C58.3275 31.553 57.4351 33.9046 55.8126 35.5579C53.7037 37.6916 51.2463 38.9546 47.053 39.1292C45.8946 39.1775 44.8224 39.189 44.8224 39.189V48.5308H38.6982L38.6984 19.4609ZM44.8222 34.0134C45.4875 34.0778 45.9045 34.0468 46.8907 34.035C50.1758 33.9959 52.203 32.0093 52.203 29.005C52.203 26.3061 50.5314 24.09 47.3777 23.9752C46.1207 23.9295 44.8222 23.9752 44.8222 23.9752V34.0134Z" fill="url(#paint5_radial_34_6064)" fill-opacity="0.5"/>
<path d="M60.6644 42.0228C61.8987 42.776 64.8113 43.9039 66.7967 43.9039C68.8251 43.9039 69.6626 43.193 69.6626 42.0848C69.6626 40.9751 69.0012 39.8094 66.487 38.9666C62.0323 37.4581 60.312 35.6524 60.3567 33.125C60.3567 29.043 63.7964 25.9822 69.1331 25.9822C71.6471 25.9822 73.6554 26.7996 74.9774 27.4646V32.3637C74.0062 31.8308 71.2059 30.6411 69.3539 30.6411C67.721 30.6411 66.7955 31.3066 66.7955 32.4146C66.7955 33.4352 67.634 33.9676 70.2801 34.8997C74.3811 36.3191 76.1015 38.4035 76.145 41.5975C76.145 45.6349 73.0154 48.8453 66.7955 48.6505C64.6608 48.5837 62.2959 47.7445 60.664 46.8585L60.6644 42.0228Z" fill="url(#paint6_linear_34_6064)"/>
<path d="M60.6644 42.0228C61.8987 42.776 64.8113 43.9039 66.7967 43.9039C68.8251 43.9039 69.6626 43.193 69.6626 42.0848C69.6626 40.9751 69.0012 39.8094 66.487 38.9666C62.0323 37.4581 60.312 35.6524 60.3567 33.125C60.3567 29.043 63.7964 25.9822 69.1331 25.9822C71.6471 25.9822 73.6554 26.7996 74.9774 27.4646V32.3637C74.0062 31.8308 71.2059 30.6411 69.3539 30.6411C67.721 30.6411 66.7955 31.3066 66.7955 32.4146C66.7955 33.4352 67.634 33.9676 70.2801 34.8997C74.3811 36.3191 76.1015 38.4035 76.145 41.5975C76.145 45.6349 73.0154 48.8453 66.7955 48.6505C64.6608 48.5837 62.2959 47.7445 60.664 46.8585L60.6644 42.0228Z" fill="url(#paint7_radial_34_6064)" fill-opacity="0.5"/>
<g filter="url(#filter0_f_34_6064)">
<ellipse cx="57.4221" cy="82.0872" rx="45.0454" ry="3.70093" fill="url(#paint8_radial_34_6064)"/>
</g>
<defs>
<filter id="filter0_f_34_6064" x="0.376709" y="66.3862" width="114.091" height="31.4019" filterUnits="userSpaceOnUse" color-interpolation-filters="sRGB">
<feFlood flood-opacity="0" result="BackgroundImageFix"/>
<feBlend mode="normal" in="SourceGraphic" in2="BackgroundImageFix" result="shape"/>
<feGaussianBlur stdDeviation="6" result="effect1_foregroundBlur_34_6064"/>
</filter>
<radialGradient id="paint0_radial_34_6064" cx="0" cy="0" r="1" gradientUnits="userSpaceOnUse" gradientTransform="translate(23.4216 30.9974) rotate(1.10882) scale(14.0112 42.0512)">
<stop stop-color="white" stop-opacity="0.5"/>
<stop offset="1" stop-color="white" stop-opacity="0"/>
</radialGradient>
<radialGradient id="paint1_radial_34_6064" cx="0" cy="0" r="1" gradientUnits="userSpaceOnUse" gradientTransform="translate(91.4216 34) rotate(-180) scale(14.1347 35.8098)">
<stop stop-color="white" stop-opacity="0.5"/>
<stop offset="1" stop-color="white" stop-opacity="0"/>
</radialGradient>
<radialGradient id="paint2_radial_34_6064" cx="0" cy="0" r="1" gradientUnits="userSpaceOnUse" gradientTransform="translate(57.4216) rotate(90) scale(10.1201 52.5275)">
<stop stop-color="white" stop-opacity="0.6"/>
<stop offset="1" stop-color="white" stop-opacity="0"/>
</radialGradient>
<radialGradient id="paint3_radial_34_6064" cx="0" cy="0" r="1" gradientUnits="userSpaceOnUse" gradientTransform="translate(58.214 68) rotate(-90) scale(3.48695 33.2076)">
<stop stop-opacity="0.5"/>
<stop offset="1" stop-opacity="0"/>
</radialGradient>
<linearGradient id="paint4_linear_34_6064" x1="20.8265" y1="-25.3432" x2="57.1888" y2="49.28" gradientUnits="userSpaceOnUse">
<stop stop-color="#A0CBFF"/>
<stop offset="0.394" stop-color="#A0CBFE"/>
<stop offset="0.583" stop-color="#8EC2FC"/>
<stop offset="0.784" stop-color="#83BCFB"/>
<stop offset="1" stop-color="#7FBAFB"/>
</linearGradient>
<radialGradient id="paint5_radial_34_6064" cx="0" cy="0" r="1" gradientUnits="userSpaceOnUse" gradientTransform="translate(38.7595 33.3171) scale(3.19938 16.0851)">
<stop stop-color="white"/>
<stop offset="1" stop-color="white" stop-opacity="0"/>
</radialGradient>
<linearGradient id="paint6_linear_34_6064" x1="45.9804" y1="-8.73171" x2="73.62" y2="49.9982" gradientUnits="userSpaceOnUse">
<stop stop-color="#A0CBFF"/>
<stop offset="0.394" stop-color="#A0CBFE"/>
<stop offset="0.583" stop-color="#8EC2FC"/>
<stop offset="0.784" stop-color="#83BCFB"/>
<stop offset="1" stop-color="#7FBAFB"/>
</linearGradient>
<radialGradient id="paint7_radial_34_6064" cx="0" cy="0" r="1" gradientUnits="userSpaceOnUse" gradientTransform="translate(71.7802 35.8621) rotate(125.218) scale(3.72598 18.0923)">
<stop stop-color="white"/>
<stop offset="1" stop-color="white" stop-opacity="0"/>
</radialGradient>
<radialGradient id="paint8_radial_34_6064" cx="0" cy="0" r="1" gradientUnits="userSpaceOnUse" gradientTransform="translate(57.4221 82.0872) rotate(90) scale(3.70093 45.0454)">
<stop stop-color="#60563E"/>
<stop offset="1" stop-color="#60563E" stop-opacity="0"/>
</radialGradient>
</defs>
</svg>
