<svg width="116" height="98" viewBox="0 0 116 98" fill="none" xmlns="http://www.w3.org/2000/svg">
<g id="Logo / XD">
<rect x="24.4216" width="68" height="68" rx="10" fill="#2E001E"/>
<rect id="Rectangle 1" x="26.9216" y="2.5" width="63" height="63" rx="7.5" stroke="#FF2BC2" stroke-width="5"/>
<g id="Rectangle 2">
<rect x="24.4216" width="68" height="68" rx="10" fill="url(#paint0_radial_34_6061)"/>
<rect x="24.4216" width="68" height="68" rx="10" fill="url(#paint1_radial_34_6061)"/>
<rect x="24.4216" width="68" height="68" rx="10" fill="url(#paint2_radial_34_6061)"/>
<rect x="24.4216" width="68" height="68" rx="10" fill="url(#paint3_radial_34_6061)"/>
</g>
<g id="Vector">
<path d="M72.4332 31.0492C72.0528 30.8726 71.5709 30.797 70.9622 30.797C67.7666 30.797 65.6362 33.2434 65.6362 37.3039C65.6362 41.9446 67.8174 43.8109 70.6579 43.8109C71.2666 43.8109 71.926 43.7352 72.4078 43.5335V31.0492H72.4332ZM61.0711 37.5057C61.0711 31.6292 64.8754 27.039 71.1144 27.039C71.647 27.039 71.926 27.039 72.4332 27.0895V20.5321C72.4332 20.3807 72.56 20.2799 72.6868 20.2799H76.7701C76.973 20.2799 77.0237 20.3555 77.0237 20.4816V43.5335C77.0237 44.2144 77.0237 45.072 77.1505 46.0051C77.1505 46.1817 77.1505 46.2069 76.9983 46.2826C74.8679 47.2914 72.6361 47.7454 70.5057 47.7454C65.0022 47.7454 61.0711 44.3658 61.0711 37.5057ZM52.4228 33.4199L59.5241 47.1148C59.6509 47.3166 59.5748 47.5184 59.3719 47.5184H54.9589C54.68 47.5184 54.5531 47.4427 54.4263 47.1905C52.8032 43.8614 51.1547 40.4061 49.4554 36.8247H49.4047C47.883 40.2043 46.2091 43.8866 44.586 47.2157C44.4591 47.4175 44.3323 47.4932 44.1294 47.4932H39.9194C39.6658 47.4932 39.6404 47.2914 39.7672 47.1401L46.7163 33.8487L39.9955 20.633C39.8433 20.4312 39.9955 20.2546 40.173 20.2546H44.5352C44.7889 20.2546 44.9157 20.3051 44.9917 20.5321C46.5895 23.8864 48.2127 27.1904 49.7344 30.57H49.7851C51.2561 27.2408 52.8793 23.8864 54.4263 20.5825C54.5531 20.3807 54.6292 20.2546 54.8828 20.2546H58.9661C59.169 20.2546 59.2451 20.406 59.1183 20.633L52.4228 33.4199Z" fill="#FF2BC2"/>
<path d="M72.4332 31.0492C72.0528 30.8726 71.5709 30.797 70.9622 30.797C67.7666 30.797 65.6362 33.2434 65.6362 37.3039C65.6362 41.9446 67.8174 43.8109 70.6579 43.8109C71.2666 43.8109 71.926 43.7352 72.4078 43.5335V31.0492H72.4332ZM61.0711 37.5057C61.0711 31.6292 64.8754 27.039 71.1144 27.039C71.647 27.039 71.926 27.039 72.4332 27.0895V20.5321C72.4332 20.3807 72.56 20.2799 72.6868 20.2799H76.7701C76.973 20.2799 77.0237 20.3555 77.0237 20.4816V43.5335C77.0237 44.2144 77.0237 45.072 77.1505 46.0051C77.1505 46.1817 77.1505 46.2069 76.9983 46.2826C74.8679 47.2914 72.6361 47.7454 70.5057 47.7454C65.0022 47.7454 61.0711 44.3658 61.0711 37.5057ZM52.4228 33.4199L59.5241 47.1148C59.6509 47.3166 59.5748 47.5184 59.3719 47.5184H54.9589C54.68 47.5184 54.5531 47.4427 54.4263 47.1905C52.8032 43.8614 51.1547 40.4061 49.4554 36.8247H49.4047C47.883 40.2043 46.2091 43.8866 44.586 47.2157C44.4591 47.4175 44.3323 47.4932 44.1294 47.4932H39.9194C39.6658 47.4932 39.6404 47.2914 39.7672 47.1401L46.7163 33.8487L39.9955 20.633C39.8433 20.4312 39.9955 20.2546 40.173 20.2546H44.5352C44.7889 20.2546 44.9157 20.3051 44.9917 20.5321C46.5895 23.8864 48.2127 27.1904 49.7344 30.57H49.7851C51.2561 27.2408 52.8793 23.8864 54.4263 20.5825C54.5531 20.3807 54.6292 20.2546 54.8828 20.2546H58.9661C59.169 20.2546 59.2451 20.406 59.1183 20.633L52.4228 33.4199Z" fill="url(#paint4_radial_34_6061)" fill-opacity="0.5"/>
<path d="M72.4332 31.0492C72.0528 30.8726 71.5709 30.797 70.9622 30.797C67.7666 30.797 65.6362 33.2434 65.6362 37.3039C65.6362 41.9446 67.8174 43.8109 70.6579 43.8109C71.2666 43.8109 71.926 43.7352 72.4078 43.5335V31.0492H72.4332ZM61.0711 37.5057C61.0711 31.6292 64.8754 27.039 71.1144 27.039C71.647 27.039 71.926 27.039 72.4332 27.0895V20.5321C72.4332 20.3807 72.56 20.2799 72.6868 20.2799H76.7701C76.973 20.2799 77.0237 20.3555 77.0237 20.4816V43.5335C77.0237 44.2144 77.0237 45.072 77.1505 46.0051C77.1505 46.1817 77.1505 46.2069 76.9983 46.2826C74.8679 47.2914 72.6361 47.7454 70.5057 47.7454C65.0022 47.7454 61.0711 44.3658 61.0711 37.5057ZM52.4228 33.4199L59.5241 47.1148C59.6509 47.3166 59.5748 47.5184 59.3719 47.5184H54.9589C54.68 47.5184 54.5531 47.4427 54.4263 47.1905C52.8032 43.8614 51.1547 40.4061 49.4554 36.8247H49.4047C47.883 40.2043 46.2091 43.8866 44.586 47.2157C44.4591 47.4175 44.3323 47.4932 44.1294 47.4932H39.9194C39.6658 47.4932 39.6404 47.2914 39.7672 47.1401L46.7163 33.8487L39.9955 20.633C39.8433 20.4312 39.9955 20.2546 40.173 20.2546H44.5352C44.7889 20.2546 44.9157 20.3051 44.9917 20.5321C46.5895 23.8864 48.2127 27.1904 49.7344 30.57H49.7851C51.2561 27.2408 52.8793 23.8864 54.4263 20.5825C54.5531 20.3807 54.6292 20.2546 54.8828 20.2546H58.9661C59.169 20.2546 59.2451 20.406 59.1183 20.633L52.4228 33.4199Z" fill="url(#paint5_radial_34_6061)" fill-opacity="0.5"/>
</g>
<g id="Shadow" filter="url(#filter0_f_34_6061)">
<ellipse cx="57.9622" cy="82.0872" rx="45.0454" ry="3.70093" fill="url(#paint6_radial_34_6061)"/>
</g>
</g>
<defs>
<filter id="filter0_f_34_6061" x="0.916748" y="66.3862" width="114.091" height="31.4019" filterUnits="userSpaceOnUse" color-interpolation-filters="sRGB">
<feFlood flood-opacity="0" result="BackgroundImageFix"/>
<feBlend mode="normal" in="SourceGraphic" in2="BackgroundImageFix" result="shape"/>
<feGaussianBlur stdDeviation="6" result="effect1_foregroundBlur_34_6061"/>
</filter>
<radialGradient id="paint0_radial_34_6061" cx="0" cy="0" r="1" gradientUnits="userSpaceOnUse" gradientTransform="translate(24.4216 30.9974) rotate(1.10882) scale(14.0112 42.0512)">
<stop stop-color="white" stop-opacity="0.5"/>
<stop offset="1" stop-color="white" stop-opacity="0"/>
</radialGradient>
<radialGradient id="paint1_radial_34_6061" cx="0" cy="0" r="1" gradientUnits="userSpaceOnUse" gradientTransform="translate(92.4216 34) rotate(-180) scale(14.1347 35.8098)">
<stop stop-color="white" stop-opacity="0.5"/>
<stop offset="1" stop-color="white" stop-opacity="0"/>
</radialGradient>
<radialGradient id="paint2_radial_34_6061" cx="0" cy="0" r="1" gradientUnits="userSpaceOnUse" gradientTransform="translate(58.4216) rotate(90) scale(10.1201 52.5275)">
<stop stop-color="white" stop-opacity="0.6"/>
<stop offset="1" stop-color="white" stop-opacity="0"/>
</radialGradient>
<radialGradient id="paint3_radial_34_6061" cx="0" cy="0" r="1" gradientUnits="userSpaceOnUse" gradientTransform="translate(59.214 68) rotate(-90) scale(3.48695 33.2076)">
<stop stop-opacity="0.5"/>
<stop offset="1" stop-opacity="0"/>
</radialGradient>
<radialGradient id="paint4_radial_34_6061" cx="0" cy="0" r="1" gradientUnits="userSpaceOnUse" gradientTransform="translate(41.5037 34.8997) scale(6.85044 15.893)">
<stop stop-color="white"/>
<stop offset="1" stop-color="white" stop-opacity="0"/>
</radialGradient>
<radialGradient id="paint5_radial_34_6061" cx="0" cy="0" r="1" gradientUnits="userSpaceOnUse" gradientTransform="translate(77.1508 34.8997) rotate(-178.102) scale(4.13727 13.6077)">
<stop stop-color="white"/>
<stop offset="1" stop-color="white" stop-opacity="0"/>
</radialGradient>
<radialGradient id="paint6_radial_34_6061" cx="0" cy="0" r="1" gradientUnits="userSpaceOnUse" gradientTransform="translate(57.9622 82.0872) rotate(90) scale(3.70093 45.0454)">
<stop stop-color="#60563E"/>
<stop offset="1" stop-color="#60563E" stop-opacity="0"/>
</radialGradient>
</defs>
</svg>
