<svg width="99" height="46" viewBox="0 0 99 46" fill="none" xmlns="http://www.w3.org/2000/svg">
<g id="Group">
<path id="Vector" d="M30.0539 9.84709C29.6958 10.2777 29.1144 10.4923 28.3129 10.4923C28.2557 11.0948 28.1265 12.1427 27.9254 13.6345C27.6391 15.6435 27.4806 16.7634 27.4527 16.9927C24.9013 36.0221 19.5828 45.5353 11.4986 45.5353C9.11897 45.5353 7.26343 44.8608 5.9305 43.5116C4.59756 42.1624 3.9311 40.4694 3.9311 38.4309C3.9311 34.7861 5.47836 31.5646 8.57582 28.7663C11.6718 25.968 15.7425 23.6503 20.788 21.8132C21.1036 19.7762 21.3473 17.9538 21.5191 16.346L22.2927 9.84562C20.5722 9.67367 18.9662 9.58695 17.4762 9.58695C13.4906 9.58695 10.5532 9.97495 8.66096 10.7495C6.76872 11.524 5.82334 12.7879 5.82334 14.5383C5.82334 15.3995 6.10959 16.3328 6.68358 17.3366C6.85533 17.6232 6.94194 17.9245 6.94194 18.2404C6.94194 18.843 6.63367 19.3809 6.01711 19.8556C5.40056 20.3288 4.73409 20.5655 4.01771 20.5655C3.10022 20.5655 2.39705 20.1775 1.91115 19.403C1.10816 18.0832 0.707397 16.5474 0.707397 14.797C0.707397 7.90858 6.72762 4.46512 18.7681 4.46512C22.2648 4.46512 25.3901 4.80902 28.1426 5.4983C29.7765 5.901 30.5942 6.70344 30.5942 7.90858C30.5942 8.76981 30.4151 9.415 30.0569 9.84562L30.0539 9.84709ZM16.271 37.7446C17.6759 35.6209 18.909 31.9041 19.9689 26.5941C12.9739 29.6657 9.47569 33.4252 9.47569 37.8739C9.47569 38.8498 9.7047 39.6037 10.1642 40.1343C10.6222 40.6663 11.2534 40.9308 12.0564 40.9308C13.4613 40.9308 14.8661 39.8697 16.271 37.7446Z" fill="white"/>
<path id="Vector_2" d="M52.523 28.2739C52.7226 28.6472 52.8239 29.1205 52.8239 29.6951C52.8239 31.0722 52.4085 31.8908 51.5761 32.1495C49.8557 32.752 47.9634 33.0974 45.8994 33.1827C45.3548 35.5929 44.2788 37.5241 42.6743 38.9732C41.0683 40.4223 39.248 41.1469 37.2133 41.1469C35.4929 41.1469 34.0234 40.7309 32.805 39.8991C31.5865 39.0673 30.6617 37.9621 30.0319 36.5835C29.4007 35.2064 29.0851 33.7132 29.0851 32.1069C29.0851 29.9258 29.5005 27.9815 30.3329 26.2737C31.1638 24.5659 32.3103 23.2314 33.7724 22.2703C35.2345 21.3091 36.8537 20.8285 38.6314 20.8285C40.8099 20.8285 42.5656 21.5825 43.8986 23.0889C45.2315 24.5953 46.0125 26.4545 46.2429 28.6649C47.5905 28.5781 49.1951 28.2916 51.0594 27.8036C51.2884 27.7463 51.4895 27.7169 51.6613 27.7169C52.0341 27.7169 52.3204 27.9036 52.5215 28.2769L52.523 28.2739ZM39.9453 35.4636C40.6191 34.717 41.0697 33.6412 41.3002 32.2347C40.4106 31.6321 39.7309 30.8429 39.2582 29.8671C38.7856 28.8912 38.5492 27.858 38.5492 26.7675C38.5492 26.309 38.5918 25.8489 38.6784 25.3904H38.4626C37.3161 25.3904 36.3619 25.943 35.603 27.0482C34.8425 28.1534 34.4638 29.7113 34.4638 31.7189C34.4638 33.2973 34.7721 34.5039 35.3886 35.3357C36.0052 36.169 36.7289 36.5835 37.5598 36.5835C38.4773 36.5835 39.2729 36.2102 39.9467 35.4636H39.9453Z" fill="white"/>
<path id="Vector_3" d="M74.4327 31.8467C74.647 32.1906 74.7557 32.6653 74.7557 33.2679C74.7557 34.4157 74.4826 35.3064 73.9395 35.9368C72.7636 37.3727 71.4732 38.5999 70.0699 39.6184C68.665 40.6369 67.2748 41.1469 65.8993 41.1469C63.7208 41.1469 62.0576 39.8697 60.9111 37.3154C59.7073 38.8365 58.6533 39.855 57.7505 40.3723C56.8477 40.8897 55.7937 41.1469 54.5899 41.1469C52.8415 41.1469 51.4 40.4943 50.2682 39.1878C49.1349 37.8827 48.5697 36.1808 48.5697 34.0865C48.5697 31.7909 49.0571 29.6598 50.0318 27.6934C51.0066 25.7284 52.3468 24.1206 54.0526 22.8714C55.7584 21.6236 57.6712 20.8844 59.7939 20.6536C60.3386 15.0865 61.3779 10.3291 62.9119 6.38157C64.4445 2.43548 66.4601 0.4617 68.9542 0.4617C70.1858 0.4617 71.212 1.02165 72.0282 2.14155C72.8458 3.26144 73.2539 4.95451 73.2539 7.22223C73.2539 10.4364 72.4656 14.1959 70.889 18.502C69.3124 22.8067 67.2043 27.2275 64.5678 31.7615C64.6823 33.4266 64.9334 34.6171 65.3209 35.3343C65.7085 36.0515 66.2032 36.4101 66.805 36.4101C67.5787 36.4101 68.367 36.0662 69.17 35.3769C69.973 34.6876 71.0475 33.5398 72.3951 31.932C72.7387 31.5307 73.1262 31.3294 73.5563 31.3294C73.9292 31.3294 74.2228 31.5013 74.4386 31.8453L74.4327 31.8467ZM57.7255 36.1308C58.2702 35.6855 58.9587 34.861 59.7895 33.6559C59.5018 32.1069 59.3594 30.3697 59.3594 28.4474C59.3594 27.7581 59.3873 26.6396 59.4446 25.0891C57.8679 25.5771 56.5556 26.6323 55.5103 28.2534C54.4637 29.8759 53.9411 31.6762 53.9411 33.6559C53.9411 35.7517 54.6574 36.7981 56.0917 36.7981C56.6363 36.7981 57.1809 36.5762 57.7255 36.1308ZM66.8417 7.58818C66.2971 9.52522 65.8318 12.0589 65.4442 15.1864C65.0567 18.3154 64.7778 21.5869 64.606 25.0024C67.8165 17.9994 69.4225 12.3735 69.4225 8.12608C69.4225 7.03558 69.3285 6.18904 69.1436 5.58648C68.9571 4.98391 68.7355 4.68262 68.4771 4.68262C67.9325 4.68262 67.3878 5.65114 66.8432 7.58818H66.8417Z" fill="white"/>
<path id="Vector_4" d="M72.4964 39.1657C71.6509 37.846 71.2281 36.0956 71.2281 33.9131C71.2281 32.6213 71.3925 30.9635 71.7228 28.9412C72.0516 26.9174 72.4759 25.0304 72.9911 23.28C73.2495 22.3614 73.593 21.7295 74.0231 21.3855C74.4533 21.0416 75.1403 20.8697 76.0871 20.8697C77.5493 20.8697 78.2803 21.3576 78.2803 22.3335C78.2803 23.0507 78.0073 24.7158 77.4641 27.3275C76.7756 30.4843 76.4321 32.6227 76.4321 33.7426C76.4321 34.6039 76.5466 35.2637 76.7756 35.7223C77.0046 36.1823 77.3922 36.4116 77.9368 36.4116C78.4535 36.4116 79.098 36.053 79.8716 35.3358C80.6452 34.6186 81.6772 33.484 82.9676 31.9349C83.3111 31.5337 83.6987 31.3323 84.1288 31.3323C84.5016 31.3323 84.7952 31.5043 85.011 31.8482C85.2253 32.1921 85.334 32.6668 85.334 33.2694C85.334 34.4172 85.0609 35.3078 84.5163 35.9383C81.6787 39.4112 79.026 41.1483 76.5613 41.1483C74.6969 41.1483 73.3435 40.4885 72.4979 39.1672L72.4964 39.1657Z" fill="white"/>
<path id="Vector_5" d="M98.126 33.1386C98.3404 33.4825 98.449 33.9572 98.449 34.5598C98.449 35.5929 98.2053 36.4836 97.7179 37.2287C96.9149 38.4632 95.8609 39.4244 94.5573 40.1137C93.2523 40.803 91.6977 41.1469 89.8921 41.1469C87.1396 41.1469 85.0037 40.3224 83.4843 38.6719C81.965 37.0215 81.2045 34.7905 81.2045 31.9775C81.2045 29.9964 81.62 28.1534 82.4523 26.4457C83.2832 24.7379 84.437 23.3828 85.9138 22.3776C87.3906 21.3738 89.0597 20.8712 90.9241 20.8712C92.5858 20.8712 93.9188 21.3664 94.9229 22.357C95.9255 23.3476 96.4276 24.6894 96.4276 26.3825C96.4276 28.3636 95.7185 30.064 94.299 31.4837C92.8794 32.9049 90.4646 34.0307 87.053 34.864C87.7415 36.1852 88.9027 36.8451 90.5365 36.8451C91.7124 36.8451 92.6798 36.5732 93.4387 36.0265C94.1977 35.4812 95.08 34.5627 96.0841 33.2709C96.4276 32.8402 96.8151 32.6257 97.2452 32.6257C97.6181 32.6257 97.9117 32.7976 98.1275 33.1415L98.126 33.1386ZM87.5037 26.9395C86.7726 28.174 86.4071 29.6672 86.4071 31.4161V31.5028C88.0982 31.1016 89.4311 30.499 90.4059 29.6951C91.3806 28.8927 91.868 27.9594 91.868 26.8968C91.868 26.3516 91.7183 25.9136 91.4173 25.5844C91.1164 25.2552 90.7083 25.0891 90.1915 25.0891C89.1302 25.0891 88.2347 25.7064 87.5037 26.9409V26.9395Z" fill="white"/>
<path id="Vector_6" d="M75.4089 11.3741C77.0883 11.3741 77.8737 13.5081 77.8737 13.5081C77.8737 13.5081 78.8455 10.9832 80.2195 11.1639C81.6904 11.3565 82.4611 12.4675 81.8739 13.8961C81.2867 15.3246 76.9987 18.6872 76.9987 18.6872C76.9987 18.6872 74.4195 15.2599 73.9057 14.0739C73.3919 12.8879 73.9806 11.3741 75.4089 11.3741Z" fill="white"/>
</g>
</svg>
