<svg width="173" height="50" viewBox="0 0 173 50" fill="none" xmlns="http://www.w3.org/2000/svg">
<g clip-path="url(#clip0_155_2793)">
<path d="M104.054 11.8471C103.696 12.2777 103.114 12.4923 102.313 12.4923C102.256 13.0948 102.126 14.1427 101.925 15.6345C101.639 17.6435 101.481 18.7634 101.453 18.9927C98.9013 38.0221 93.5828 47.5353 85.4986 47.5353C83.119 47.5353 81.2634 46.8608 79.9305 45.5116C78.5976 44.1624 77.9311 42.4694 77.9311 40.4309C77.9311 36.7861 79.4784 33.5646 82.5758 30.7663C85.6718 27.968 89.7425 25.6503 94.788 23.8132C95.1036 21.7762 95.3473 19.9538 95.5191 18.346L96.2927 11.8456C94.5722 11.6737 92.9662 11.587 91.4762 11.587C87.4906 11.587 84.5532 11.975 82.661 12.7495C80.7687 13.524 79.8233 14.7879 79.8233 16.5383C79.8233 17.3995 80.1096 18.3328 80.6836 19.3366C80.8553 19.6232 80.9419 19.9245 80.9419 20.2404C80.9419 20.843 80.6337 21.3809 80.0171 21.8556C79.4006 22.3288 78.7341 22.5655 78.0177 22.5655C77.1002 22.5655 76.397 22.1775 75.9111 21.403C75.1082 20.0832 74.7074 18.5474 74.7074 16.797C74.7074 9.90858 80.7276 6.46512 92.7681 6.46512C96.2648 6.46512 99.3901 6.80902 102.143 7.4983C103.776 7.901 104.594 8.70344 104.594 9.90858C104.594 10.7698 104.415 11.415 104.057 11.8456L104.054 11.8471ZM90.271 39.7446C91.6759 37.6209 92.909 33.9041 93.9689 28.5941C86.9739 31.6657 83.4757 35.4252 83.4757 39.8739C83.4757 40.8498 83.7047 41.6037 84.1642 42.1343C84.6222 42.6663 85.2534 42.9308 86.0564 42.9308C87.4613 42.9308 88.8661 41.8697 90.271 39.7446Z" fill="white"/>
<path d="M126.523 30.2739C126.723 30.6472 126.824 31.1205 126.824 31.6951C126.824 33.0722 126.408 33.8908 125.576 34.1495C123.856 34.752 121.963 35.0974 119.899 35.1827C119.355 37.5929 118.279 39.5241 116.674 40.9732C115.068 42.4223 113.248 43.1469 111.213 43.1469C109.493 43.1469 108.023 42.7309 106.805 41.8991C105.587 41.0673 104.662 39.9621 104.032 38.5835C103.401 37.2064 103.085 35.7132 103.085 34.1069C103.085 31.9258 103.501 29.9815 104.333 28.2737C105.164 26.5659 106.31 25.2314 107.772 24.2703C109.234 23.3091 110.854 22.8285 112.631 22.8285C114.81 22.8285 116.566 23.5825 117.899 25.0889C119.231 26.5953 120.012 28.4545 120.243 30.6649C121.591 30.5781 123.195 30.2916 125.059 29.8036C125.288 29.7463 125.49 29.7169 125.661 29.7169C126.034 29.7169 126.32 29.9036 126.522 30.2769L126.523 30.2739ZM113.945 37.4636C114.619 36.717 115.07 35.6412 115.3 34.2347C114.411 33.6321 113.731 32.8429 113.258 31.8671C112.786 30.8912 112.549 29.858 112.549 28.7675C112.549 28.309 112.592 27.8489 112.678 27.3904H112.463C111.316 27.3904 110.362 27.943 109.603 29.0482C108.843 30.1534 108.464 31.7113 108.464 33.7189C108.464 35.2973 108.772 36.5039 109.389 37.3357C110.005 38.169 110.729 38.5835 111.56 38.5835C112.477 38.5835 113.273 38.2102 113.947 37.4636H113.945Z" fill="white"/>
<path d="M148.433 33.8467C148.647 34.1906 148.756 34.6653 148.756 35.2679C148.756 36.4157 148.483 37.3064 147.939 37.9368C146.764 39.3727 145.473 40.5999 144.07 41.6184C142.665 42.6369 141.275 43.1469 139.899 43.1469C137.721 43.1469 136.058 41.8697 134.911 39.3154C133.707 40.8365 132.653 41.855 131.75 42.3723C130.848 42.8897 129.794 43.1469 128.59 43.1469C126.842 43.1469 125.4 42.4943 124.268 41.1878C123.135 39.8827 122.57 38.1808 122.57 36.0865C122.57 33.7909 123.057 31.6598 124.032 29.6934C125.007 27.7284 126.347 26.1206 128.053 24.8714C129.758 23.6236 131.671 22.8844 133.794 22.6536C134.339 17.0865 135.378 12.3291 136.912 8.38157C138.445 4.43548 140.46 2.4617 142.954 2.4617C144.186 2.4617 145.212 3.02165 146.028 4.14155C146.846 5.26144 147.254 6.95451 147.254 9.22223C147.254 12.4364 146.466 16.1959 144.889 20.502C143.312 24.8067 141.204 29.2275 138.568 33.7615C138.682 35.4266 138.933 36.6171 139.321 37.3343C139.708 38.0515 140.203 38.4101 140.805 38.4101C141.579 38.4101 142.367 38.0662 143.17 37.3769C143.973 36.6876 145.048 35.5398 146.395 33.932C146.739 33.5307 147.126 33.3294 147.556 33.3294C147.929 33.3294 148.223 33.5013 148.439 33.8453L148.433 33.8467ZM131.726 38.1308C132.27 37.6855 132.959 36.861 133.79 35.6559C133.502 34.1069 133.359 32.3697 133.359 30.4474C133.359 29.7581 133.387 28.6396 133.445 27.0891C131.868 27.5771 130.556 28.6323 129.51 30.2534C128.464 31.8759 127.941 33.6762 127.941 35.6559C127.941 37.7517 128.657 38.7981 130.092 38.7981C130.636 38.7981 131.181 38.5762 131.726 38.1308ZM140.842 9.58818C140.297 11.5252 139.832 14.0589 139.444 17.1864C139.057 20.3154 138.778 23.5869 138.606 27.0024C141.816 19.9994 143.422 14.3735 143.422 10.1261C143.422 9.03558 143.329 8.18904 143.144 7.58648C142.957 6.98391 142.735 6.68262 142.477 6.68262C141.932 6.68262 141.388 7.65114 140.843 9.58818H140.842Z" fill="white"/>
<path d="M146.496 41.1657C145.651 39.846 145.228 38.0956 145.228 35.9131C145.228 34.6213 145.393 32.9635 145.723 30.9412C146.052 28.9174 146.476 27.0304 146.991 25.28C147.25 24.3614 147.593 23.7295 148.023 23.3855C148.453 23.0416 149.14 22.8697 150.087 22.8697C151.549 22.8697 152.28 23.3576 152.28 24.3335C152.28 25.0507 152.007 26.7158 151.464 29.3275C150.776 32.4843 150.432 34.6227 150.432 35.7426C150.432 36.6039 150.547 37.2637 150.776 37.7223C151.005 38.1823 151.392 38.4116 151.937 38.4116C152.454 38.4116 153.098 38.053 153.872 37.3358C154.645 36.6186 155.677 35.484 156.968 33.9349C157.311 33.5337 157.699 33.3323 158.129 33.3323C158.502 33.3323 158.795 33.5043 159.011 33.8482C159.225 34.1921 159.334 34.6668 159.334 35.2694C159.334 36.4172 159.061 37.3078 158.516 37.9383C155.679 41.4112 153.026 43.1483 150.561 43.1483C148.697 43.1483 147.343 42.4885 146.498 41.1672L146.496 41.1657Z" fill="white"/>
<path d="M172.126 35.1386C172.34 35.4825 172.449 35.9572 172.449 36.5598C172.449 37.5929 172.205 38.4836 171.718 39.2287C170.915 40.4632 169.861 41.4244 168.557 42.1137C167.252 42.803 165.698 43.1469 163.892 43.1469C161.14 43.1469 159.004 42.3224 157.484 40.6719C155.965 39.0215 155.205 36.7905 155.205 33.9775C155.205 31.9964 155.62 30.1534 156.452 28.4457C157.283 26.7379 158.437 25.3828 159.914 24.3776C161.391 23.3738 163.06 22.8712 164.924 22.8712C166.586 22.8712 167.919 23.3664 168.923 24.357C169.926 25.3476 170.428 26.6894 170.428 28.3825C170.428 30.3636 169.719 32.064 168.299 33.4837C166.879 34.9049 164.465 36.0307 161.053 36.864C161.741 38.1852 162.903 38.8451 164.537 38.8451C165.712 38.8451 166.68 38.5732 167.439 38.0265C168.198 37.4812 169.08 36.5627 170.084 35.2709C170.428 34.8402 170.815 34.6257 171.245 34.6257C171.618 34.6257 171.912 34.7976 172.128 35.1415L172.126 35.1386ZM161.504 28.9395C160.773 30.174 160.407 31.6672 160.407 33.4161V33.5028C162.098 33.1016 163.431 32.499 164.406 31.6951C165.381 30.8927 165.868 29.9594 165.868 28.8968C165.868 28.3516 165.718 27.9136 165.417 27.5844C165.116 27.2552 164.708 27.0891 164.192 27.0891C163.13 27.0891 162.235 27.7064 161.504 28.9409V28.9395Z" fill="white"/>
<path d="M149.409 13.3741C151.088 13.3741 151.874 15.5081 151.874 15.5081C151.874 15.5081 152.845 12.9832 154.22 13.1639C155.69 13.3565 156.461 14.4675 155.874 15.8961C155.287 17.3246 150.999 20.6872 150.999 20.6872C150.999 20.6872 148.419 17.2599 147.906 16.0739C147.392 14.8879 147.981 13.3741 149.409 13.3741Z" fill="white"/>
<path d="M26.5706 50C25.8058 50 25.0556 49.7017 24.4934 49.1388L5.0763 29.6978C1.80269 26.4219 0 22.0511 0 17.3893C0 12.7274 1.80269 8.35807 5.0763 5.08069C8.34845 1.80477 12.7142 0 17.3692 0C22.0242 0 26.3915 1.80477 29.6636 5.08216L31.2461 6.66647L32.8272 5.08216C36.1008 1.80477 40.4666 0 45.1216 0C49.7765 0 54.1438 1.80477 57.416 5.08216C64.1951 11.8691 64.1951 22.9123 57.416 29.6978L38.0121 49.1241C37.1724 49.9647 35.9099 50.216 34.8119 49.7619C33.7153 49.3063 32.9989 48.2349 32.9989 47.0459V22.2216C32.9989 20.5976 34.3128 19.2822 35.9349 19.2822C37.557 19.2822 38.8709 20.5976 38.8709 22.2216V39.9503L53.2615 25.5416C57.7507 21.0473 57.7507 13.7327 53.2615 9.23841C51.0977 7.0721 48.2058 5.87872 45.1186 5.87872C42.0314 5.87872 39.141 7.0721 36.9772 9.23841L33.3204 12.9009C32.7699 13.452 32.0227 13.7621 31.2447 13.7621C30.4666 13.7621 29.7194 13.452 29.1689 12.9009L25.5107 9.23841C23.3469 7.0721 20.4549 5.87872 17.3678 5.87872C14.2806 5.87872 11.3901 7.0721 9.22631 9.23841C7.06249 11.4047 5.87048 14.3 5.87048 17.3893C5.87048 20.4785 7.06249 23.3738 9.22631 25.5401L23.6331 39.9636V21.1061H19.1602C17.5381 21.1061 16.2242 19.7907 16.2242 18.1667C16.2242 16.5427 17.5381 15.2274 19.1602 15.2274H26.5691C28.1912 15.2274 29.5051 16.5427 29.5051 18.1667V47.0606C29.5051 48.2496 28.7902 49.321 27.6921 49.7766C27.3295 49.9265 26.9479 50 26.5691 50H26.5706Z" fill="#FCD70D"/>
</g>
<defs>
<clipPath id="clip0_155_2793">
<rect width="172.449" height="50" fill="white"/>
</clipPath>
</defs>
</svg>
