<svg width="24" height="25" viewBox="0 0 24 25" fill="none" xmlns="http://www.w3.org/2000/svg">
<path fill-rule="evenodd" clip-rule="evenodd" d="M23.7835 8.59162L21.7663 5.1275L14.3061 9.39543V0.859558H10.2624V9.39543L2.80218 5.1275L0.784241 8.59162L8.24634 12.8596L0.784809 17.1275L2.80212 20.5916L10.2624 16.3237V24.8596H14.3061V16.3237L21.7662 20.5916L23.7842 17.1275L16.3221 12.8596L23.7835 8.59162ZM22.4046 17.4924L21.396 19.234L13.2952 14.6096V23.8596H11.2733V14.6096L3.17243 19.2346L2.16346 17.498L10.2653 12.8607L2.16372 8.22587L3.17237 6.48468L11.2733 11.1096V1.85956H13.2952V11.1096L21.396 6.48456L22.405 8.22112L14.3032 12.8573L22.4046 17.4924Z" fill="black" fill-opacity="0.38"/>
</svg>
