<svg xmlns="http://www.w3.org/2000/svg" width="30" height="23" viewBox="0 0 30 23" fill="none">
  <path fill-rule="evenodd" clip-rule="evenodd" d="M27.4809 4.52622H22.8212C20.397 1.77622 19.6342 0.859558 18.7053 0.859558H12.0217C11.0928 0.859558 10.3452 1.77622 7.90586 4.52622H6.90143V3.304H4.33372V4.52622H3.31419C1.98502 4.52622 0.784241 5.53456 0.784241 6.87136V20.3158C0.784241 21.6526 1.98502 22.8596 3.31419 22.8596H27.4809C28.81 22.8596 29.7842 21.6526 29.7842 20.3158V6.87136C29.7842 5.53456 28.81 4.52622 27.4809 4.52622ZM28.5759 20.3158C28.5759 21.0262 28.1077 21.6373 27.4809 21.6373H3.31419C2.65716 21.6373 1.99257 20.9728 1.99257 20.3158V6.87136C1.99257 6.24497 2.60429 5.74845 3.31419 5.74845H7.8983H8.4345L8.797 5.504C9.09908 5.16025 9.37851 4.74011 9.63528 4.44984C10.4887 3.4797 11.1079 2.7922 11.546 2.39497C11.9009 2.07414 12.0142 2.08178 12.0142 2.08178H18.6978C18.6978 2.08178 18.8186 2.07414 19.2038 2.42553C19.6644 2.84567 20.3139 3.68595 21.2126 4.70192C21.4316 4.954 21.6658 5.22136 21.915 5.504L22.2775 5.74845H22.8212H27.4809C28.1454 5.74845 28.5759 6.20678 28.5759 6.87136V20.3158Z" fill="black" fill-opacity="0.38"/>
  <path fill-rule="evenodd" clip-rule="evenodd" d="M15.2842 6.77972C11.7272 6.77972 8.82721 9.71306 8.82721 13.311C8.82721 16.9089 11.7272 19.8422 15.2842 19.8422C18.8413 19.8422 21.7413 16.9089 21.7413 13.311C21.7413 9.71306 18.8413 6.77972 15.2842 6.77972ZM15.2842 18.62C12.3842 18.62 10.0355 16.2443 10.0355 13.311C10.0355 10.3776 12.3842 8.00195 15.2842 8.00195C18.1842 8.00195 20.5329 10.3776 20.5329 13.311C20.5329 16.2443 18.1842 18.62 15.2842 18.62Z" fill="black" fill-opacity="0.38"/>
  <rect x="22.5342" y="6.97064" width="1.28385" height="1.29861" fill="black" fill-opacity="0.38"/>
  <ellipse cx="15.2842" cy="13.311" rx="2.41667" ry="2.44444" fill="black" fill-opacity="0.38"/>
</svg>