<svg width="48" height="48" viewBox="0 0 48 48" fill="none" xmlns="http://www.w3.org/2000/svg">
<g id="icon / iconoir / coin">
<path id="Vector" d="M24 44C35.0456 44 44 35.0456 44 24C44 12.9543 35.0456 4 24 4C12.9543 4 4 12.9543 4 24C4 35.0456 12.9543 44 24 44Z" stroke="#FCD70D" stroke-width="4" stroke-linecap="round" stroke-linejoin="round"/>
<path id="Vector_2" d="M24 32.782V37M30 17C28.63 15.63 26.2174 14.6771 24 14.6174L30 17ZM18 30C19.289 31.7186 21.6856 32.6988 24 32.782L18 30ZM24 14.6174C21.3618 14.5464 19 15.74 19 19C19 25 30 22 30 28C30 31.422 27.0724 32.8924 24 32.782V14.6174ZM24 14.6174V11V14.6174Z" stroke="#FCD70D" stroke-width="4" stroke-linecap="round" stroke-linejoin="round"/>
</g>
</svg>
