<svg width="48" height="49" viewBox="0 0 48 49" fill="none" xmlns="http://www.w3.org/2000/svg">
<g id="icon / ionicons / outline / color-palette-outline">
<path id="Vector (Stroke)" fill-rule="evenodd" clip-rule="evenodd" d="M10.8755 11.5004C15.3715 7.51546 21.1858 5.48926 26.7571 5.48926C31.53 5.48926 36.2049 6.98 39.7294 10.082L39.7305 10.083L39.7316 10.084C44.7568 14.5243 44.7573 21.8773 39.7331 26.3182C39.7326 26.3187 39.7321 26.3191 39.7316 26.3196L36.8938 28.8389C36.8937 28.839 36.8937 28.8391 36.8936 28.8391C36.4988 29.1898 36.3923 29.5272 36.3923 29.7705C36.3923 30.0138 36.4989 30.3513 36.8938 30.7021L36.8961 30.7041L36.8984 30.7062C37.1527 30.9339 37.2816 31.0138 37.4018 31.0677C37.5423 31.1307 37.7653 31.1993 38.261 31.2812L38.2635 31.2816L38.266 31.282C38.3081 31.2891 38.3534 31.2965 38.4015 31.3044C39.0981 31.4179 40.3953 31.6294 41.3409 32.5033L41.3436 32.5059L41.3464 32.5084C42.2409 33.3435 42.7038 34.5654 42.7415 35.7362C42.78 36.9266 42.3819 38.251 41.308 39.1996C37.3491 42.7187 31.8554 44.4893 26.3634 44.4893H26.1986L26.1932 44.4892C20.6958 44.4495 15.0791 42.636 10.8763 38.9194C2.37289 31.4039 2.37263 19.0162 10.8755 11.5004ZM26.7571 8.48926C21.885 8.48926 16.7873 10.269 12.8646 13.7461L12.8638 13.7468L12.863 13.7476C5.71038 20.0693 5.71038 30.3499 12.863 36.6716L12.8633 36.6719C16.4403 39.8351 21.3212 41.4528 26.2094 41.4893H26.3634C31.2578 41.4893 36.0008 39.9042 39.3167 36.9558L39.3189 36.9538L39.3212 36.9518C39.5954 36.7099 39.7588 36.3197 39.7431 35.8329C39.7268 35.3277 39.521 34.9104 39.3019 34.7039C39.075 34.4964 38.6695 34.3925 37.77 34.2407C37.1883 34.1446 36.6667 34.0257 36.1749 33.8054C35.6633 33.5761 35.2724 33.277 34.8991 32.9429C33.955 32.1033 33.3923 30.9839 33.3923 29.7705C33.3923 28.556 33.956 27.4357 34.9017 26.5958L37.7438 24.0726L37.7451 24.0715C41.4191 20.8251 41.4195 15.5798 37.7463 12.3331C34.8584 9.79194 30.9275 8.48926 26.7571 8.48926Z" fill="#FCD70D"/>
<path id="Vector" d="M13.5 23.4893C15.1569 23.4893 16.5 22.1461 16.5 20.4893C16.5 18.8324 15.1569 17.4893 13.5 17.4893C11.8431 17.4893 10.5 18.8324 10.5 20.4893C10.5 22.1461 11.8431 23.4893 13.5 23.4893Z" fill="#FCD70D"/>
<path id="Vector_2" d="M14.25 33.1455C15.9069 33.1455 17.25 31.8024 17.25 30.1455C17.25 28.4887 15.9069 27.1455 14.25 27.1455C12.5931 27.1455 11.25 28.4887 11.25 30.1455C11.25 31.8024 12.5931 33.1455 14.25 33.1455Z" fill="#FCD70D"/>
<path id="Vector_3" d="M21 17.4893C22.6569 17.4893 24 16.1461 24 14.4893C24 12.8324 22.6569 11.4893 21 11.4893C19.3431 11.4893 18 12.8324 18 14.4893C18 16.1461 19.3431 17.4893 21 17.4893Z" fill="#FCD70D"/>
<path id="Vector_4" d="M24 39.8955C26.4853 39.8955 28.5 37.8808 28.5 35.3955C28.5 32.9102 26.4853 30.8955 24 30.8955C21.5147 30.8955 19.5 32.9102 19.5 35.3955C19.5 37.8808 21.5147 39.8955 24 39.8955Z" fill="#FCD70D"/>
<path id="Vector_5" d="M30.75 17.4893C32.4069 17.4893 33.75 16.1461 33.75 14.4893C33.75 12.8324 32.4069 11.4893 30.75 11.4893C29.0931 11.4893 27.75 12.8324 27.75 14.4893C27.75 16.1461 29.0931 17.4893 30.75 17.4893Z" fill="#FCD70D"/>
</g>
</svg>
