<svg width="48" height="49" viewBox="0 0 48 49" fill="none" xmlns="http://www.w3.org/2000/svg">
<g id="icon / heroicons / Outline / currency-dollar">
<path id="Icon" d="M27.6867 20.3C28.4106 21.1343 29.6738 21.2238 30.5081 20.4999C31.3423 19.776 31.4318 18.5128 30.7079 17.6785L27.6867 20.3ZM20.3133 29.6785C19.5894 28.8442 18.3263 28.7547 17.492 29.4787C16.6577 30.2026 16.5682 31.4657 17.2921 32.3L20.3133 29.6785ZM26 14.9893C26 13.8847 25.1046 12.9893 24 12.9893C22.8954 12.9893 22 13.8847 22 14.9893H26ZM22 34.9892C22 36.0938 22.8954 36.9892 24 36.9893C25.1045 36.9893 26 36.0939 26 34.9893L22 34.9892ZM40 24.9893C40 33.8258 32.8366 40.9893 24 40.9893V44.9893C35.0457 44.9893 44 36.035 44 24.9893H40ZM24 40.9893C15.1634 40.9893 8 33.8258 8 24.9893H4C4 36.035 12.9543 44.9893 24 44.9893V40.9893ZM8 24.9893C8 16.1527 15.1634 8.98926 24 8.98926V4.98926C12.9543 4.98926 4 13.9436 4 24.9893H8ZM24 8.98926C32.8366 8.98926 40 16.1527 40 24.9893H44C44 13.9436 35.0457 4.98926 24 4.98926V8.98926ZM24 22.9893C22.6829 22.9893 21.581 22.6297 20.8668 22.1536C20.1385 21.6681 20 21.2171 20 20.9893H16C16 22.9706 17.2046 24.5196 18.648 25.4818C20.1053 26.4533 22.0034 26.9893 24 26.9893V22.9893ZM20 20.9893C20 20.7615 20.1385 20.3104 20.8668 19.8249C21.581 19.3488 22.6829 18.9893 24 18.9893V14.9893C22.0034 14.9893 20.1053 15.5252 18.648 16.4967C17.2046 17.459 16 19.0079 16 20.9893H20ZM24 18.9893C25.8076 18.9893 27.1261 19.6539 27.6867 20.3L30.7079 17.6785C29.1937 15.9334 26.6341 14.9893 24 14.9893V18.9893ZM24 26.9893C25.3171 26.9893 26.419 27.3488 27.1333 27.8249C27.8615 28.3104 28 28.7615 28 28.9893H32C32 27.0079 30.7954 25.459 29.3521 24.4967C27.8947 23.5252 25.9966 22.9893 24 22.9893V26.9893ZM22 14.9893V16.9893H26V14.9893H22ZM22 32.9892L22 34.9892L26 34.9893L26 32.9893L22 32.9892ZM24.0001 30.9893C22.1925 30.9893 20.874 30.3246 20.3133 29.6785L17.2921 32.3C18.8063 34.0451 21.3659 34.9892 24 34.9893L24.0001 30.9893ZM28 28.9893C28 29.2171 27.8615 29.6681 27.1333 30.1536C26.419 30.6297 25.3171 30.9893 24 30.9893V34.9893C25.9967 34.9893 27.8947 34.4533 29.3521 33.4818C30.7954 32.5196 32 30.9706 32 28.9893H28ZM22 16.9893L22 32.9893L26 32.9893L26 16.9893L22 16.9893Z" fill="#FCD70D"/>
</g>
</svg>
