<svg width="10" height="13" viewBox="0 0 10 13" fill="none" xmlns="http://www.w3.org/2000/svg">
<g id="evaArrowRightFill0">
<g id="evaArrowRightFill1">
<path id="evaArrowRightFill2" d="M2.46 12.1096C2.14597 12.1077 1.83587 12.0396 1.55 11.9096C1.24083 11.7733 0.977413 11.5509 0.791223 11.2689C0.605032 10.987 0.503933 10.6574 0.5 10.3196V1.89957C0.503933 1.56171 0.605032 1.23213 0.791223 0.950185C0.977413 0.668239 1.24083 0.445846 1.55 0.309566C1.90574 0.141534 2.30153 0.0768145 2.69227 0.122783C3.083 0.168752 3.45297 0.32356 3.76 0.569566L8.86 4.77957C9.05999 4.93878 9.22151 5.14105 9.33252 5.37132C9.44353 5.60159 9.50118 5.85393 9.50118 6.10957C9.50118 6.3652 9.44353 6.61754 9.33252 6.84781C9.22151 7.07808 9.05999 7.28035 8.86 7.43957L3.76 11.6496C3.39238 11.9477 2.93331 12.1101 2.46 12.1096Z" fill="#fcd70d"/>
</g>
</g>
</svg>
