<svg width="24" height="25" viewBox="0 0 24 25" fill="none" xmlns="http://www.w3.org/2000/svg">
<g clip-path="url(#clip0_60_5441)">
<path d="M12 0.352539C5.37 0.352539 0 5.72254 0 12.3525C0 17.6625 3.435 22.1475 8.205 23.7375C8.805 23.8425 9.03 23.4825 9.03 23.1675C9.03 22.8825 9.015 21.9375 9.015 20.9325C6 21.4875 5.22 20.1975 4.98 19.5225C4.845 19.1775 4.26 18.1125 3.75 17.8275C3.33 17.6025 2.73 17.0475 3.735 17.0325C4.68 17.0175 5.355 17.9025 5.58 18.2625C6.66 20.0775 8.385 19.5675 9.075 19.2525C9.18 18.4725 9.495 17.9475 9.84 17.6475C7.17 17.3475 4.38 16.3125 4.38 11.7225C4.38 10.4175 4.845 9.33754 5.61 8.49754C5.49 8.19754 5.07 6.96754 5.73 5.31754C5.73 5.31754 6.735 5.00254 9.03 6.54754C9.99 6.27754 11.01 6.14254 12.03 6.14254C13.05 6.14254 14.07 6.27754 15.03 6.54754C17.325 4.98754 18.33 5.31754 18.33 5.31754C18.99 6.96754 18.57 8.19754 18.45 8.49754C19.215 9.33754 19.68 10.4025 19.68 11.7225C19.68 16.3275 16.875 17.3475 14.205 17.6475C14.64 18.0225 15.015 18.7425 15.015 19.8675C15.015 21.4725 15 22.7625 15 23.1675C15 23.4825 15.225 23.8575 15.825 23.7375C18.2073 22.9335 20.2775 21.4026 21.744 19.3602C23.2106 17.3178 23.9996 14.8669 24 12.3525C24 5.72254 18.63 0.352539 12 0.352539Z" fill="#F2F2F2"/>
</g>
<defs>
<clipPath id="clip0_60_5441">
<rect width="24" height="24" fill="white" transform="translate(0 0.352539)"/>
</clipPath>
</defs>
</svg>
