<svg width="30" height="30" viewBox="0 0 30 30" fill="none" xmlns="http://www.w3.org/2000/svg">
<path fill-rule="evenodd" clip-rule="evenodd" d="M15.2842 0.859558C15.2773 0.859558 15.2773 0.859558 15.2703 0.859558C15.2703 0.859558 15.2703 0.859558 15.2633 0.859558C15.2564 0.859558 15.2494 0.859558 15.2494 0.859558C7.25347 0.880472 0.784241 7.36364 0.784241 15.3596C0.784241 23.3555 7.25347 29.8386 15.2494 29.8596C15.2564 29.8596 15.2633 29.8596 15.2633 29.8596H15.2703C15.2773 29.8596 15.2773 29.8596 15.2842 29.8596C23.2941 29.8596 29.7842 23.3694 29.7842 15.3596C29.7842 7.3497 23.2941 0.859558 15.2842 0.859558ZM15.8628 9.53864C17.4035 9.49682 18.8953 9.29465 20.3383 8.9461C20.7705 10.654 21.0424 12.6269 21.0842 14.7879H15.8628V9.53864ZM15.8628 8.37446V2.11437C17.4244 2.54658 19.0138 4.63095 20.0177 7.83071C18.6792 8.15139 17.2919 8.33263 15.8628 8.37446ZM14.7056 2.10042V8.38143C13.2626 8.33961 11.8614 8.15138 10.516 7.82374C11.5338 4.60307 13.1302 2.50475 14.7056 2.10042ZM14.7056 9.53864V14.781H9.44938C9.49121 12.6199 9.76309 10.6471 10.1953 8.93913C11.6453 9.28768 13.158 9.49682 14.7056 9.53864ZM8.27823 14.781H1.96237C2.08785 11.7973 3.20323 9.06461 4.98088 6.90355C6.27054 7.61461 7.64386 8.20018 9.07991 8.63239C8.60588 10.4798 8.32703 12.5641 8.27823 14.781ZM8.27823 15.9382C8.32006 18.148 8.5989 20.2394 9.07294 22.0867C7.63688 22.5259 6.27054 23.1045 4.9739 23.8156C3.19626 21.6545 2.08785 18.9218 1.95539 15.9382H8.27823ZM9.44938 15.9382H14.7056V21.1735C13.158 21.2153 11.6453 21.4245 10.1953 21.78C9.76309 20.0721 9.49121 18.0992 9.44938 15.9382ZM14.7056 22.3377V28.6257C13.1302 28.2144 11.5338 26.123 10.516 22.9023C11.8614 22.5677 13.2626 22.3795 14.7056 22.3377ZM15.8628 28.6047V22.3307C17.2919 22.3725 18.6792 22.5608 20.0246 22.8814C19.0138 26.0882 17.4314 28.1725 15.8628 28.6047ZM15.8628 21.1735V15.9382H21.0842C21.0424 18.0923 20.7705 20.0651 20.3383 21.773C18.8953 21.4245 17.4035 21.2153 15.8628 21.1735ZM22.2484 15.9382H28.6061C28.4806 18.9218 27.3653 21.6475 25.5876 23.8156C24.284 23.0975 22.9037 22.512 21.4537 22.0728C21.9278 20.2254 22.2066 18.148 22.2484 15.9382ZM22.2484 14.781C22.2066 12.5711 21.9278 10.4867 21.4607 8.63937C22.9107 8.20018 24.291 7.61461 25.5876 6.90355C27.3653 9.06461 28.4806 11.7973 28.6061 14.7879H22.2484V14.781ZM24.7929 6.01124C23.6357 6.6247 22.4227 7.1336 21.147 7.51701C20.4708 5.33504 19.5157 3.55739 18.3934 2.38624C20.8612 2.97879 23.064 4.26148 24.7929 6.01124ZM12.1333 2.40018C11.0109 3.56437 10.0628 5.34201 9.39362 7.51004C8.13184 7.12663 6.92583 6.6247 5.78256 6.01124C7.49049 4.26845 9.67943 2.99273 12.1333 2.40018ZM5.77559 24.7009C6.91886 24.0874 8.13184 23.5855 9.38664 23.2021C10.0628 25.3771 11.0109 27.1478 12.1333 28.3189C9.67943 27.7264 7.49049 26.4507 5.77559 24.7009ZM18.3934 28.3329C19.5227 27.1617 20.4708 25.3841 21.154 23.1951C22.4297 23.5785 23.6427 24.0874 24.7999 24.7009C23.071 26.4576 20.8612 27.7403 18.3934 28.3329Z" fill="black" fill-opacity="0.38"/>
</svg>
