<svg width="48" height="49" viewBox="0 0 48 49" fill="none" xmlns="http://www.w3.org/2000/svg">
<g id="icon / iconoir / language">
<path id="Vector" d="M4 24.9893C4 36.0349 12.9543 44.9893 24 44.9893C35.0456 44.9893 44 36.0349 44 24.9893C44 13.9436 35.0456 4.98926 24 4.98926C12.9543 4.98926 4 13.9436 4 24.9893Z" stroke="#FCD70D" stroke-width="4" stroke-linecap="round" stroke-linejoin="round"/>
<path id="Vector_2" d="M26 5.08789C26 5.08789 32 12.9891 32 24.989C32 36.989 26 44.8904 26 44.8904" stroke="#FCD70D" stroke-width="4" stroke-linecap="round" stroke-linejoin="round"/>
<path id="Vector_3" d="M22 44.8904C22 44.8904 16 36.989 16 24.989C16 12.9891 22 5.08789 22 5.08789" stroke="#FCD70D" stroke-width="4" stroke-linecap="round" stroke-linejoin="round"/>
<path id="Vector_4" d="M5.25928 31.9893H42.7408" stroke="#FCD70D" stroke-width="4" stroke-linecap="round" stroke-linejoin="round"/>
<path id="Vector_5" d="M5.25928 17.9893H42.7408" stroke="#FCD70D" stroke-width="4" stroke-linecap="round" stroke-linejoin="round"/>
</g>
</svg>
