<svg width="48" height="48" viewBox="0 0 48 48" fill="none" xmlns="http://www.w3.org/2000/svg">
<g id="icon / tabler-icons / letter-case">
<path id="Vector" d="M35 38C38.866 38 42 34.866 42 31C42 27.134 38.866 24 35 24C31.134 24 28 27.134 28 31C28 34.866 31.134 38 35 38Z" stroke="#FCD70D" stroke-width="4" stroke-linecap="round" stroke-linejoin="round"/>
<path id="Vector_2" d="M6 38V17C6 15.1435 6.7375 13.363 8.05025 12.0503C9.36301 10.7375 11.1435 10 13 10C14.8565 10 16.637 10.7375 17.9497 12.0503C19.2625 13.363 20 15.1435 20 17V38" stroke="#FCD70D" stroke-width="4" stroke-linecap="round" stroke-linejoin="round"/>
<path id="Vector_3" d="M6 26H20" stroke="#FCD70D" stroke-width="4" stroke-linecap="round" stroke-linejoin="round"/>
<path id="Vector_4" d="M42 24V38" stroke="#FCD70D" stroke-width="4" stroke-linecap="round" stroke-linejoin="round"/>
</g>
</svg>
