<svg width="44" height="45" viewBox="0 0 44 45" fill="none" xmlns="http://www.w3.org/2000/svg">
<rect y="0.109375" width="44" height="44" rx="22" fill="#FCD70D"/>
<path d="M20.46 28.1096C20.146 28.1077 19.8359 28.0396 19.55 27.9096C19.2408 27.7733 18.9774 27.5509 18.7912 27.2689C18.605 26.987 18.5039 26.6574 18.5 26.3196V17.8996C18.5039 17.5617 18.605 17.2321 18.7912 16.9502C18.9774 16.6682 19.2408 16.4458 19.55 16.3096C19.9057 16.1415 20.3015 16.0768 20.6923 16.1228C21.083 16.1688 21.453 16.3236 21.76 16.5696L26.86 20.7796C27.06 20.9388 27.2215 21.1411 27.3325 21.3713C27.4435 21.6016 27.5012 21.8539 27.5012 22.1096C27.5012 22.3652 27.4435 22.6175 27.3325 22.8478C27.2215 23.0781 27.06 23.2803 26.86 23.4396L21.76 27.6496C21.3924 27.9477 20.9333 28.1101 20.46 28.1096Z" fill="black"/>
</svg>
