<svg width="24" height="25" viewBox="0 0 24 25" fill="none" xmlns="http://www.w3.org/2000/svg">
<g id="Icon / Star">
<path id="Star 1" d="M9.59828 5.66219C9.92044 4.79157 11.1518 4.79157 11.474 5.66219L13.0775 9.99554C13.1788 10.2693 13.3946 10.4851 13.6683 10.5864L18.0016 12.1898C18.8722 12.512 18.8722 13.7434 18.0016 14.0655L13.6683 15.669C13.3946 15.7703 13.1788 15.9861 13.0775 16.2598L11.474 20.5932C11.1518 21.4638 9.92044 21.4638 9.59828 20.5932L7.9948 16.2598C7.89351 15.9861 7.6777 15.7703 7.40398 15.669L3.07064 14.0655C2.20002 13.7434 2.20002 12.512 3.07064 12.1898L7.40398 10.5864C7.6777 10.4851 7.89351 10.2693 7.9948 9.99554L9.59828 5.66219Z" fill="black"/>
<path id="Star 2" d="M16.0014 3.21649C16.1713 2.8033 16.7565 2.8033 16.9263 3.21649L17.2585 4.02457C17.3093 4.14807 17.4073 4.24614 17.5309 4.29691L18.3389 4.6291C18.7521 4.79896 18.7521 5.38414 18.3389 5.554L17.5309 5.8862C17.4073 5.93697 17.3093 6.03503 17.2585 6.15854L16.9263 6.96662C16.7565 7.37981 16.1713 7.37981 16.0014 6.96662L15.6692 6.15854C15.6185 6.03503 15.5204 5.93697 15.3969 5.8862L14.5888 5.554C14.1756 5.38414 14.1756 4.79896 14.5888 4.6291L15.3969 4.29691C15.5204 4.24614 15.6185 4.14807 15.6692 4.02457L16.0014 3.21649Z" fill="black"/>
<path id="Star 3" d="M21.1851 7.97914C21.2853 7.72679 21.6425 7.72679 21.7427 7.97914L21.9846 8.58828C22.0151 8.66506 22.0759 8.72587 22.1527 8.75636L22.7618 8.99828C23.0142 9.09851 23.0142 9.45569 22.7618 9.55592L22.1527 9.79783C22.0759 9.82833 22.0151 9.88914 21.9846 9.96592L21.7427 10.5751C21.6425 10.8274 21.2853 10.8274 21.1851 10.5751L20.9431 9.96592C20.9126 9.88914 20.8518 9.82833 20.775 9.79783L20.1659 9.55592C19.9136 9.45569 19.9136 9.09851 20.1659 8.99828L20.775 8.75636C20.8518 8.72587 20.9126 8.66506 20.9431 8.58828L21.1851 7.97914Z" fill="black"/>
</g>
</svg>
